<svg xmlns="http://www.w3.org/2000/svg" viewBox="0 0 1000 720" role="img" aria-labelledby="title desc"><title id="title">One position drives several frequency clocks</title><desc id="desc">Compare the two coordinate planes of a four-channel rotary prefix. R = 4 and theta = 100 produce frequencies 1 and 0.1 radians per token. Position 1 rotates each unit basis vector by its own frequency; these are not learned vectors.</desc>
<rect width="1000" height="720" fill="white"/>
<text x="40" y="38" fill="#465c6b" font-family="DejaVu Sans, sans-serif" font-size="14" text-anchor="start">FIG-CH09-FREQUENCIES  /  CANONICAL / CHAPTER 9</text>
<text x="40" y="84" fill="#152b3c" font-family="DejaVu Sans, sans-serif" font-size="30" text-anchor="start">One position drives several frequency clocks</text>
<line x1="40" y1="109" x2="960" y2="109" stroke="#152b3c" stroke-width="1.5"/>
<text x="40" y="140" fill="#152b3c" font-family="DejaVu Sans, sans-serif" font-size="19" text-anchor="start">Compare the two coordinate planes of a four-channel rotary prefix.</text>
<line x1="343.0" y1="363.0" x2="342.852" y2="357.348" stroke="#465c6b" stroke-width="1"/>
<line x1="342.852" y1="357.348" x2="342.408" y2="351.711" stroke="#465c6b" stroke-width="1"/>
<line x1="342.408" y1="351.711" x2="341.67" y2="346.105" stroke="#465c6b" stroke-width="1"/>
<line x1="341.67" y1="346.105" x2="340.64" y2="340.546" stroke="#465c6b" stroke-width="1"/>
<line x1="340.64" y1="340.546" x2="339.32" y2="335.048" stroke="#465c6b" stroke-width="1"/>
<line x1="339.32" y1="335.048" x2="337.714" y2="329.626" stroke="#465c6b" stroke-width="1"/>
<line x1="337.714" y1="329.626" x2="335.827" y2="324.296" stroke="#465c6b" stroke-width="1"/>
<line x1="335.827" y1="324.296" x2="333.663" y2="319.072" stroke="#465c6b" stroke-width="1"/>
<line x1="333.663" y1="319.072" x2="331.229" y2="313.969" stroke="#465c6b" stroke-width="1"/>
<line x1="331.229" y1="313.969" x2="328.531" y2="309.0" stroke="#465c6b" stroke-width="1"/>
<line x1="328.531" y1="309.0" x2="325.576" y2="304.179" stroke="#465c6b" stroke-width="1"/>
<line x1="325.576" y1="304.179" x2="322.374" y2="299.519" stroke="#465c6b" stroke-width="1"/>
<line x1="322.374" y1="299.519" x2="318.932" y2="295.033" stroke="#465c6b" stroke-width="1"/>
<line x1="318.932" y1="295.033" x2="315.26" y2="290.734" stroke="#465c6b" stroke-width="1"/>
<line x1="315.26" y1="290.734" x2="311.368" y2="286.632" stroke="#465c6b" stroke-width="1"/>
<line x1="311.368" y1="286.632" x2="307.266" y2="282.74" stroke="#465c6b" stroke-width="1"/>
<line x1="307.266" y1="282.74" x2="302.967" y2="279.068" stroke="#465c6b" stroke-width="1"/>
<line x1="302.967" y1="279.068" x2="298.481" y2="275.626" stroke="#465c6b" stroke-width="1"/>
<line x1="298.481" y1="275.626" x2="293.821" y2="272.424" stroke="#465c6b" stroke-width="1"/>
<line x1="293.821" y1="272.424" x2="289.0" y2="269.469" stroke="#465c6b" stroke-width="1"/>
<line x1="289.0" y1="269.469" x2="284.031" y2="266.771" stroke="#465c6b" stroke-width="1"/>
<line x1="284.031" y1="266.771" x2="278.928" y2="264.337" stroke="#465c6b" stroke-width="1"/>
<line x1="278.928" y1="264.337" x2="273.704" y2="262.173" stroke="#465c6b" stroke-width="1"/>
<line x1="273.704" y1="262.173" x2="268.374" y2="260.286" stroke="#465c6b" stroke-width="1"/>
<line x1="268.374" y1="260.286" x2="262.952" y2="258.68" stroke="#465c6b" stroke-width="1"/>
<line x1="262.952" y1="258.68" x2="257.454" y2="257.36" stroke="#465c6b" stroke-width="1"/>
<line x1="257.454" y1="257.36" x2="251.895" y2="256.33" stroke="#465c6b" stroke-width="1"/>
<line x1="251.895" y1="256.33" x2="246.289" y2="255.592" stroke="#465c6b" stroke-width="1"/>
<line x1="246.289" y1="255.592" x2="240.652" y2="255.148" stroke="#465c6b" stroke-width="1"/>
<line x1="240.652" y1="255.148" x2="235.0" y2="255.0" stroke="#465c6b" stroke-width="1"/>
<line x1="235.0" y1="255.0" x2="229.348" y2="255.148" stroke="#465c6b" stroke-width="1"/>
<line x1="229.348" y1="255.148" x2="223.711" y2="255.592" stroke="#465c6b" stroke-width="1"/>
<line x1="223.711" y1="255.592" x2="218.105" y2="256.33" stroke="#465c6b" stroke-width="1"/>
<line x1="218.105" y1="256.33" x2="212.546" y2="257.36" stroke="#465c6b" stroke-width="1"/>
<line x1="212.546" y1="257.36" x2="207.048" y2="258.68" stroke="#465c6b" stroke-width="1"/>
<line x1="207.048" y1="258.68" x2="201.626" y2="260.286" stroke="#465c6b" stroke-width="1"/>
<line x1="201.626" y1="260.286" x2="196.296" y2="262.173" stroke="#465c6b" stroke-width="1"/>
<line x1="196.296" y1="262.173" x2="191.072" y2="264.337" stroke="#465c6b" stroke-width="1"/>
<line x1="191.072" y1="264.337" x2="185.969" y2="266.771" stroke="#465c6b" stroke-width="1"/>
<line x1="185.969" y1="266.771" x2="181.0" y2="269.469" stroke="#465c6b" stroke-width="1"/>
<line x1="181.0" y1="269.469" x2="176.179" y2="272.424" stroke="#465c6b" stroke-width="1"/>
<line x1="176.179" y1="272.424" x2="171.519" y2="275.626" stroke="#465c6b" stroke-width="1"/>
<line x1="171.519" y1="275.626" x2="167.033" y2="279.068" stroke="#465c6b" stroke-width="1"/>
<line x1="167.033" y1="279.068" x2="162.734" y2="282.74" stroke="#465c6b" stroke-width="1"/>
<line x1="162.734" y1="282.74" x2="158.632" y2="286.632" stroke="#465c6b" stroke-width="1"/>
<line x1="158.632" y1="286.632" x2="154.74" y2="290.734" stroke="#465c6b" stroke-width="1"/>
<line x1="154.74" y1="290.734" x2="151.068" y2="295.033" stroke="#465c6b" stroke-width="1"/>
<line x1="151.068" y1="295.033" x2="147.626" y2="299.519" stroke="#465c6b" stroke-width="1"/>
<line x1="147.626" y1="299.519" x2="144.424" y2="304.179" stroke="#465c6b" stroke-width="1"/>
<line x1="144.424" y1="304.179" x2="141.469" y2="309.0" stroke="#465c6b" stroke-width="1"/>
<line x1="141.469" y1="309.0" x2="138.771" y2="313.969" stroke="#465c6b" stroke-width="1"/>
<line x1="138.771" y1="313.969" x2="136.337" y2="319.072" stroke="#465c6b" stroke-width="1"/>
<line x1="136.337" y1="319.072" x2="134.173" y2="324.296" stroke="#465c6b" stroke-width="1"/>
<line x1="134.173" y1="324.296" x2="132.286" y2="329.626" stroke="#465c6b" stroke-width="1"/>
<line x1="132.286" y1="329.626" x2="130.68" y2="335.048" stroke="#465c6b" stroke-width="1"/>
<line x1="130.68" y1="335.048" x2="129.36" y2="340.546" stroke="#465c6b" stroke-width="1"/>
<line x1="129.36" y1="340.546" x2="128.33" y2="346.105" stroke="#465c6b" stroke-width="1"/>
<line x1="128.33" y1="346.105" x2="127.592" y2="351.711" stroke="#465c6b" stroke-width="1"/>
<line x1="127.592" y1="351.711" x2="127.148" y2="357.348" stroke="#465c6b" stroke-width="1"/>
<line x1="127.148" y1="357.348" x2="127.0" y2="363.0" stroke="#465c6b" stroke-width="1"/>
<line x1="127.0" y1="363.0" x2="127.148" y2="368.652" stroke="#465c6b" stroke-width="1"/>
<line x1="127.148" y1="368.652" x2="127.592" y2="374.289" stroke="#465c6b" stroke-width="1"/>
<line x1="127.592" y1="374.289" x2="128.33" y2="379.895" stroke="#465c6b" stroke-width="1"/>
<line x1="128.33" y1="379.895" x2="129.36" y2="385.454" stroke="#465c6b" stroke-width="1"/>
<line x1="129.36" y1="385.454" x2="130.68" y2="390.952" stroke="#465c6b" stroke-width="1"/>
<line x1="130.68" y1="390.952" x2="132.286" y2="396.374" stroke="#465c6b" stroke-width="1"/>
<line x1="132.286" y1="396.374" x2="134.173" y2="401.704" stroke="#465c6b" stroke-width="1"/>
<line x1="134.173" y1="401.704" x2="136.337" y2="406.928" stroke="#465c6b" stroke-width="1"/>
<line x1="136.337" y1="406.928" x2="138.771" y2="412.031" stroke="#465c6b" stroke-width="1"/>
<line x1="138.771" y1="412.031" x2="141.469" y2="417.0" stroke="#465c6b" stroke-width="1"/>
<line x1="141.469" y1="417.0" x2="144.424" y2="421.821" stroke="#465c6b" stroke-width="1"/>
<line x1="144.424" y1="421.821" x2="147.626" y2="426.481" stroke="#465c6b" stroke-width="1"/>
<line x1="147.626" y1="426.481" x2="151.068" y2="430.967" stroke="#465c6b" stroke-width="1"/>
<line x1="151.068" y1="430.967" x2="154.74" y2="435.266" stroke="#465c6b" stroke-width="1"/>
<line x1="154.74" y1="435.266" x2="158.632" y2="439.368" stroke="#465c6b" stroke-width="1"/>
<line x1="158.632" y1="439.368" x2="162.734" y2="443.26" stroke="#465c6b" stroke-width="1"/>
<line x1="162.734" y1="443.26" x2="167.033" y2="446.932" stroke="#465c6b" stroke-width="1"/>
<line x1="167.033" y1="446.932" x2="171.519" y2="450.374" stroke="#465c6b" stroke-width="1"/>
<line x1="171.519" y1="450.374" x2="176.179" y2="453.576" stroke="#465c6b" stroke-width="1"/>
<line x1="176.179" y1="453.576" x2="181.0" y2="456.531" stroke="#465c6b" stroke-width="1"/>
<line x1="181.0" y1="456.531" x2="185.969" y2="459.229" stroke="#465c6b" stroke-width="1"/>
<line x1="185.969" y1="459.229" x2="191.072" y2="461.663" stroke="#465c6b" stroke-width="1"/>
<line x1="191.072" y1="461.663" x2="196.296" y2="463.827" stroke="#465c6b" stroke-width="1"/>
<line x1="196.296" y1="463.827" x2="201.626" y2="465.714" stroke="#465c6b" stroke-width="1"/>
<line x1="201.626" y1="465.714" x2="207.048" y2="467.32" stroke="#465c6b" stroke-width="1"/>
<line x1="207.048" y1="467.32" x2="212.546" y2="468.64" stroke="#465c6b" stroke-width="1"/>
<line x1="212.546" y1="468.64" x2="218.105" y2="469.67" stroke="#465c6b" stroke-width="1"/>
<line x1="218.105" y1="469.67" x2="223.711" y2="470.408" stroke="#465c6b" stroke-width="1"/>
<line x1="223.711" y1="470.408" x2="229.348" y2="470.852" stroke="#465c6b" stroke-width="1"/>
<line x1="229.348" y1="470.852" x2="235.0" y2="471.0" stroke="#465c6b" stroke-width="1"/>
<line x1="235.0" y1="471.0" x2="240.652" y2="470.852" stroke="#465c6b" stroke-width="1"/>
<line x1="240.652" y1="470.852" x2="246.289" y2="470.408" stroke="#465c6b" stroke-width="1"/>
<line x1="246.289" y1="470.408" x2="251.895" y2="469.67" stroke="#465c6b" stroke-width="1"/>
<line x1="251.895" y1="469.67" x2="257.454" y2="468.64" stroke="#465c6b" stroke-width="1"/>
<line x1="257.454" y1="468.64" x2="262.952" y2="467.32" stroke="#465c6b" stroke-width="1"/>
<line x1="262.952" y1="467.32" x2="268.374" y2="465.714" stroke="#465c6b" stroke-width="1"/>
<line x1="268.374" y1="465.714" x2="273.704" y2="463.827" stroke="#465c6b" stroke-width="1"/>
<line x1="273.704" y1="463.827" x2="278.928" y2="461.663" stroke="#465c6b" stroke-width="1"/>
<line x1="278.928" y1="461.663" x2="284.031" y2="459.229" stroke="#465c6b" stroke-width="1"/>
<line x1="284.031" y1="459.229" x2="289.0" y2="456.531" stroke="#465c6b" stroke-width="1"/>
<line x1="289.0" y1="456.531" x2="293.821" y2="453.576" stroke="#465c6b" stroke-width="1"/>
<line x1="293.821" y1="453.576" x2="298.481" y2="450.374" stroke="#465c6b" stroke-width="1"/>
<line x1="298.481" y1="450.374" x2="302.967" y2="446.932" stroke="#465c6b" stroke-width="1"/>
<line x1="302.967" y1="446.932" x2="307.266" y2="443.26" stroke="#465c6b" stroke-width="1"/>
<line x1="307.266" y1="443.26" x2="311.368" y2="439.368" stroke="#465c6b" stroke-width="1"/>
<line x1="311.368" y1="439.368" x2="315.26" y2="435.266" stroke="#465c6b" stroke-width="1"/>
<line x1="315.26" y1="435.266" x2="318.932" y2="430.967" stroke="#465c6b" stroke-width="1"/>
<line x1="318.932" y1="430.967" x2="322.374" y2="426.481" stroke="#465c6b" stroke-width="1"/>
<line x1="322.374" y1="426.481" x2="325.576" y2="421.821" stroke="#465c6b" stroke-width="1"/>
<line x1="325.576" y1="421.821" x2="328.531" y2="417.0" stroke="#465c6b" stroke-width="1"/>
<line x1="328.531" y1="417.0" x2="331.229" y2="412.031" stroke="#465c6b" stroke-width="1"/>
<line x1="331.229" y1="412.031" x2="333.663" y2="406.928" stroke="#465c6b" stroke-width="1"/>
<line x1="333.663" y1="406.928" x2="335.827" y2="401.704" stroke="#465c6b" stroke-width="1"/>
<line x1="335.827" y1="401.704" x2="337.714" y2="396.374" stroke="#465c6b" stroke-width="1"/>
<line x1="337.714" y1="396.374" x2="339.32" y2="390.952" stroke="#465c6b" stroke-width="1"/>
<line x1="339.32" y1="390.952" x2="340.64" y2="385.454" stroke="#465c6b" stroke-width="1"/>
<line x1="340.64" y1="385.454" x2="341.67" y2="379.895" stroke="#465c6b" stroke-width="1"/>
<line x1="341.67" y1="379.895" x2="342.408" y2="374.289" stroke="#465c6b" stroke-width="1"/>
<line x1="342.408" y1="374.289" x2="342.852" y2="368.652" stroke="#465c6b" stroke-width="1"/>
<line x1="342.852" y1="368.652" x2="343.0" y2="363.0" stroke="#465c6b" stroke-width="1"/>
<line x1="109" y1="363" x2="368" y2="363" stroke="#152b3c" stroke-width="2.5"/>
<polygon fill="#152b3c" points="368.00,363.00 359.00,367.35 359.00,358.65"/>
<line x1="235" y1="489" x2="235" y2="230" stroke="#152b3c" stroke-width="2.5"/>
<polygon fill="#152b3c" points="235.00,230.00 239.35,239.00 230.65,239.00"/>
<line x1="235" y1="363" x2="343" y2="363" stroke="#152b3c" stroke-width="2.5"/>
<polygon fill="#152b3c" points="343.00,363.00 334.00,367.35 334.00,358.65"/>
<line x1="235" y1="363" x2="293.3526490337591" y2="272.1211336407472" stroke="#152b3c" stroke-width="2.5"/>
<polygon fill="#152b3c" points="293.35,272.12 292.15,282.05 284.83,277.35"/>
<line x1="275.0" y1="363.0" x2="274.988" y2="362.0" stroke="#237c69" stroke-width="3"/>
<line x1="274.988" y1="362.0" x2="274.95" y2="361.001" stroke="#237c69" stroke-width="3"/>
<line x1="274.95" y1="361.001" x2="274.888" y2="360.003" stroke="#237c69" stroke-width="3"/>
<line x1="274.888" y1="360.003" x2="274.8" y2="359.007" stroke="#237c69" stroke-width="3"/>
<line x1="274.8" y1="359.007" x2="274.688" y2="358.013" stroke="#237c69" stroke-width="3"/>
<line x1="274.688" y1="358.013" x2="274.551" y2="357.022" stroke="#237c69" stroke-width="3"/>
<line x1="274.551" y1="357.022" x2="274.389" y2="356.036" stroke="#237c69" stroke-width="3"/>
<line x1="274.389" y1="356.036" x2="274.203" y2="355.053" stroke="#237c69" stroke-width="3"/>
<line x1="274.203" y1="355.053" x2="273.992" y2="354.076" stroke="#237c69" stroke-width="3"/>
<line x1="273.992" y1="354.076" x2="273.756" y2="353.104" stroke="#237c69" stroke-width="3"/>
<line x1="273.756" y1="353.104" x2="273.497" y2="352.138" stroke="#237c69" stroke-width="3"/>
<line x1="273.497" y1="352.138" x2="273.213" y2="351.179" stroke="#237c69" stroke-width="3"/>
<line x1="273.213" y1="351.179" x2="272.906" y2="350.228" stroke="#237c69" stroke-width="3"/>
<line x1="272.906" y1="350.228" x2="272.575" y2="349.284" stroke="#237c69" stroke-width="3"/>
<line x1="272.575" y1="349.284" x2="272.22" y2="348.349" stroke="#237c69" stroke-width="3"/>
<line x1="272.22" y1="348.349" x2="271.842" y2="347.423" stroke="#237c69" stroke-width="3"/>
<line x1="271.842" y1="347.423" x2="271.442" y2="346.507" stroke="#237c69" stroke-width="3"/>
<line x1="271.442" y1="346.507" x2="271.018" y2="345.601" stroke="#237c69" stroke-width="3"/>
<line x1="271.018" y1="345.601" x2="270.572" y2="344.706" stroke="#237c69" stroke-width="3"/>
<line x1="270.572" y1="344.706" x2="270.103" y2="343.823" stroke="#237c69" stroke-width="3"/>
<line x1="270.103" y1="343.823" x2="269.613" y2="342.951" stroke="#237c69" stroke-width="3"/>
<line x1="269.613" y1="342.951" x2="269.101" y2="342.093" stroke="#237c69" stroke-width="3"/>
<line x1="269.101" y1="342.093" x2="268.568" y2="341.247" stroke="#237c69" stroke-width="3"/>
<line x1="268.568" y1="341.247" x2="268.013" y2="340.414" stroke="#237c69" stroke-width="3"/>
<line x1="268.013" y1="340.414" x2="267.439" y2="339.596" stroke="#237c69" stroke-width="3"/>
<line x1="267.439" y1="339.596" x2="266.843" y2="338.793" stroke="#237c69" stroke-width="3"/>
<line x1="266.843" y1="338.793" x2="266.228" y2="338.004" stroke="#237c69" stroke-width="3"/>
<line x1="266.228" y1="338.004" x2="265.594" y2="337.231" stroke="#237c69" stroke-width="3"/>
<line x1="265.594" y1="337.231" x2="264.94" y2="336.475" stroke="#237c69" stroke-width="3"/>
<line x1="264.94" y1="336.475" x2="264.268" y2="335.734" stroke="#237c69" stroke-width="3"/>
<line x1="264.268" y1="335.734" x2="263.577" y2="335.011" stroke="#237c69" stroke-width="3"/>
<line x1="263.577" y1="335.011" x2="262.868" y2="334.306" stroke="#237c69" stroke-width="3"/>
<line x1="262.868" y1="334.306" x2="262.142" y2="333.618" stroke="#237c69" stroke-width="3"/>
<line x1="262.142" y1="333.618" x2="261.399" y2="332.949" stroke="#237c69" stroke-width="3"/>
<line x1="261.399" y1="332.949" x2="260.64" y2="332.298" stroke="#237c69" stroke-width="3"/>
<line x1="260.64" y1="332.298" x2="259.864" y2="331.667" stroke="#237c69" stroke-width="3"/>
<line x1="259.864" y1="331.667" x2="259.073" y2="331.055" stroke="#237c69" stroke-width="3"/>
<line x1="259.073" y1="331.055" x2="258.267" y2="330.463" stroke="#237c69" stroke-width="3"/>
<line x1="258.267" y1="330.463" x2="257.447" y2="329.892" stroke="#237c69" stroke-width="3"/>
<line x1="257.447" y1="329.892" x2="256.612" y2="329.341" stroke="#237c69" stroke-width="3"/>
<text x="127" y="521" fill="#152b3c" font-family="DejaVu Sans, sans-serif" font-size="18" text-anchor="start">Plane 0 / ω = 1 rad/token</text>
<line x1="808.0" y1="363.0" x2="807.852" y2="357.348" stroke="#465c6b" stroke-width="1"/>
<line x1="807.852" y1="357.348" x2="807.408" y2="351.711" stroke="#465c6b" stroke-width="1"/>
<line x1="807.408" y1="351.711" x2="806.67" y2="346.105" stroke="#465c6b" stroke-width="1"/>
<line x1="806.67" y1="346.105" x2="805.64" y2="340.546" stroke="#465c6b" stroke-width="1"/>
<line x1="805.64" y1="340.546" x2="804.32" y2="335.048" stroke="#465c6b" stroke-width="1"/>
<line x1="804.32" y1="335.048" x2="802.714" y2="329.626" stroke="#465c6b" stroke-width="1"/>
<line x1="802.714" y1="329.626" x2="800.827" y2="324.296" stroke="#465c6b" stroke-width="1"/>
<line x1="800.827" y1="324.296" x2="798.663" y2="319.072" stroke="#465c6b" stroke-width="1"/>
<line x1="798.663" y1="319.072" x2="796.229" y2="313.969" stroke="#465c6b" stroke-width="1"/>
<line x1="796.229" y1="313.969" x2="793.531" y2="309.0" stroke="#465c6b" stroke-width="1"/>
<line x1="793.531" y1="309.0" x2="790.576" y2="304.179" stroke="#465c6b" stroke-width="1"/>
<line x1="790.576" y1="304.179" x2="787.374" y2="299.519" stroke="#465c6b" stroke-width="1"/>
<line x1="787.374" y1="299.519" x2="783.932" y2="295.033" stroke="#465c6b" stroke-width="1"/>
<line x1="783.932" y1="295.033" x2="780.26" y2="290.734" stroke="#465c6b" stroke-width="1"/>
<line x1="780.26" y1="290.734" x2="776.368" y2="286.632" stroke="#465c6b" stroke-width="1"/>
<line x1="776.368" y1="286.632" x2="772.266" y2="282.74" stroke="#465c6b" stroke-width="1"/>
<line x1="772.266" y1="282.74" x2="767.967" y2="279.068" stroke="#465c6b" stroke-width="1"/>
<line x1="767.967" y1="279.068" x2="763.481" y2="275.626" stroke="#465c6b" stroke-width="1"/>
<line x1="763.481" y1="275.626" x2="758.821" y2="272.424" stroke="#465c6b" stroke-width="1"/>
<line x1="758.821" y1="272.424" x2="754.0" y2="269.469" stroke="#465c6b" stroke-width="1"/>
<line x1="754.0" y1="269.469" x2="749.031" y2="266.771" stroke="#465c6b" stroke-width="1"/>
<line x1="749.031" y1="266.771" x2="743.928" y2="264.337" stroke="#465c6b" stroke-width="1"/>
<line x1="743.928" y1="264.337" x2="738.704" y2="262.173" stroke="#465c6b" stroke-width="1"/>
<line x1="738.704" y1="262.173" x2="733.374" y2="260.286" stroke="#465c6b" stroke-width="1"/>
<line x1="733.374" y1="260.286" x2="727.952" y2="258.68" stroke="#465c6b" stroke-width="1"/>
<line x1="727.952" y1="258.68" x2="722.454" y2="257.36" stroke="#465c6b" stroke-width="1"/>
<line x1="722.454" y1="257.36" x2="716.895" y2="256.33" stroke="#465c6b" stroke-width="1"/>
<line x1="716.895" y1="256.33" x2="711.289" y2="255.592" stroke="#465c6b" stroke-width="1"/>
<line x1="711.289" y1="255.592" x2="705.652" y2="255.148" stroke="#465c6b" stroke-width="1"/>
<line x1="705.652" y1="255.148" x2="700.0" y2="255.0" stroke="#465c6b" stroke-width="1"/>
<line x1="700.0" y1="255.0" x2="694.348" y2="255.148" stroke="#465c6b" stroke-width="1"/>
<line x1="694.348" y1="255.148" x2="688.711" y2="255.592" stroke="#465c6b" stroke-width="1"/>
<line x1="688.711" y1="255.592" x2="683.105" y2="256.33" stroke="#465c6b" stroke-width="1"/>
<line x1="683.105" y1="256.33" x2="677.546" y2="257.36" stroke="#465c6b" stroke-width="1"/>
<line x1="677.546" y1="257.36" x2="672.048" y2="258.68" stroke="#465c6b" stroke-width="1"/>
<line x1="672.048" y1="258.68" x2="666.626" y2="260.286" stroke="#465c6b" stroke-width="1"/>
<line x1="666.626" y1="260.286" x2="661.296" y2="262.173" stroke="#465c6b" stroke-width="1"/>
<line x1="661.296" y1="262.173" x2="656.072" y2="264.337" stroke="#465c6b" stroke-width="1"/>
<line x1="656.072" y1="264.337" x2="650.969" y2="266.771" stroke="#465c6b" stroke-width="1"/>
<line x1="650.969" y1="266.771" x2="646.0" y2="269.469" stroke="#465c6b" stroke-width="1"/>
<line x1="646.0" y1="269.469" x2="641.179" y2="272.424" stroke="#465c6b" stroke-width="1"/>
<line x1="641.179" y1="272.424" x2="636.519" y2="275.626" stroke="#465c6b" stroke-width="1"/>
<line x1="636.519" y1="275.626" x2="632.033" y2="279.068" stroke="#465c6b" stroke-width="1"/>
<line x1="632.033" y1="279.068" x2="627.734" y2="282.74" stroke="#465c6b" stroke-width="1"/>
<line x1="627.734" y1="282.74" x2="623.632" y2="286.632" stroke="#465c6b" stroke-width="1"/>
<line x1="623.632" y1="286.632" x2="619.74" y2="290.734" stroke="#465c6b" stroke-width="1"/>
<line x1="619.74" y1="290.734" x2="616.068" y2="295.033" stroke="#465c6b" stroke-width="1"/>
<line x1="616.068" y1="295.033" x2="612.626" y2="299.519" stroke="#465c6b" stroke-width="1"/>
<line x1="612.626" y1="299.519" x2="609.424" y2="304.179" stroke="#465c6b" stroke-width="1"/>
<line x1="609.424" y1="304.179" x2="606.469" y2="309.0" stroke="#465c6b" stroke-width="1"/>
<line x1="606.469" y1="309.0" x2="603.771" y2="313.969" stroke="#465c6b" stroke-width="1"/>
<line x1="603.771" y1="313.969" x2="601.337" y2="319.072" stroke="#465c6b" stroke-width="1"/>
<line x1="601.337" y1="319.072" x2="599.173" y2="324.296" stroke="#465c6b" stroke-width="1"/>
<line x1="599.173" y1="324.296" x2="597.286" y2="329.626" stroke="#465c6b" stroke-width="1"/>
<line x1="597.286" y1="329.626" x2="595.68" y2="335.048" stroke="#465c6b" stroke-width="1"/>
<line x1="595.68" y1="335.048" x2="594.36" y2="340.546" stroke="#465c6b" stroke-width="1"/>
<line x1="594.36" y1="340.546" x2="593.33" y2="346.105" stroke="#465c6b" stroke-width="1"/>
<line x1="593.33" y1="346.105" x2="592.592" y2="351.711" stroke="#465c6b" stroke-width="1"/>
<line x1="592.592" y1="351.711" x2="592.148" y2="357.348" stroke="#465c6b" stroke-width="1"/>
<line x1="592.148" y1="357.348" x2="592.0" y2="363.0" stroke="#465c6b" stroke-width="1"/>
<line x1="592.0" y1="363.0" x2="592.148" y2="368.652" stroke="#465c6b" stroke-width="1"/>
<line x1="592.148" y1="368.652" x2="592.592" y2="374.289" stroke="#465c6b" stroke-width="1"/>
<line x1="592.592" y1="374.289" x2="593.33" y2="379.895" stroke="#465c6b" stroke-width="1"/>
<line x1="593.33" y1="379.895" x2="594.36" y2="385.454" stroke="#465c6b" stroke-width="1"/>
<line x1="594.36" y1="385.454" x2="595.68" y2="390.952" stroke="#465c6b" stroke-width="1"/>
<line x1="595.68" y1="390.952" x2="597.286" y2="396.374" stroke="#465c6b" stroke-width="1"/>
<line x1="597.286" y1="396.374" x2="599.173" y2="401.704" stroke="#465c6b" stroke-width="1"/>
<line x1="599.173" y1="401.704" x2="601.337" y2="406.928" stroke="#465c6b" stroke-width="1"/>
<line x1="601.337" y1="406.928" x2="603.771" y2="412.031" stroke="#465c6b" stroke-width="1"/>
<line x1="603.771" y1="412.031" x2="606.469" y2="417.0" stroke="#465c6b" stroke-width="1"/>
<line x1="606.469" y1="417.0" x2="609.424" y2="421.821" stroke="#465c6b" stroke-width="1"/>
<line x1="609.424" y1="421.821" x2="612.626" y2="426.481" stroke="#465c6b" stroke-width="1"/>
<line x1="612.626" y1="426.481" x2="616.068" y2="430.967" stroke="#465c6b" stroke-width="1"/>
<line x1="616.068" y1="430.967" x2="619.74" y2="435.266" stroke="#465c6b" stroke-width="1"/>
<line x1="619.74" y1="435.266" x2="623.632" y2="439.368" stroke="#465c6b" stroke-width="1"/>
<line x1="623.632" y1="439.368" x2="627.734" y2="443.26" stroke="#465c6b" stroke-width="1"/>
<line x1="627.734" y1="443.26" x2="632.033" y2="446.932" stroke="#465c6b" stroke-width="1"/>
<line x1="632.033" y1="446.932" x2="636.519" y2="450.374" stroke="#465c6b" stroke-width="1"/>
<line x1="636.519" y1="450.374" x2="641.179" y2="453.576" stroke="#465c6b" stroke-width="1"/>
<line x1="641.179" y1="453.576" x2="646.0" y2="456.531" stroke="#465c6b" stroke-width="1"/>
<line x1="646.0" y1="456.531" x2="650.969" y2="459.229" stroke="#465c6b" stroke-width="1"/>
<line x1="650.969" y1="459.229" x2="656.072" y2="461.663" stroke="#465c6b" stroke-width="1"/>
<line x1="656.072" y1="461.663" x2="661.296" y2="463.827" stroke="#465c6b" stroke-width="1"/>
<line x1="661.296" y1="463.827" x2="666.626" y2="465.714" stroke="#465c6b" stroke-width="1"/>
<line x1="666.626" y1="465.714" x2="672.048" y2="467.32" stroke="#465c6b" stroke-width="1"/>
<line x1="672.048" y1="467.32" x2="677.546" y2="468.64" stroke="#465c6b" stroke-width="1"/>
<line x1="677.546" y1="468.64" x2="683.105" y2="469.67" stroke="#465c6b" stroke-width="1"/>
<line x1="683.105" y1="469.67" x2="688.711" y2="470.408" stroke="#465c6b" stroke-width="1"/>
<line x1="688.711" y1="470.408" x2="694.348" y2="470.852" stroke="#465c6b" stroke-width="1"/>
<line x1="694.348" y1="470.852" x2="700.0" y2="471.0" stroke="#465c6b" stroke-width="1"/>
<line x1="700.0" y1="471.0" x2="705.652" y2="470.852" stroke="#465c6b" stroke-width="1"/>
<line x1="705.652" y1="470.852" x2="711.289" y2="470.408" stroke="#465c6b" stroke-width="1"/>
<line x1="711.289" y1="470.408" x2="716.895" y2="469.67" stroke="#465c6b" stroke-width="1"/>
<line x1="716.895" y1="469.67" x2="722.454" y2="468.64" stroke="#465c6b" stroke-width="1"/>
<line x1="722.454" y1="468.64" x2="727.952" y2="467.32" stroke="#465c6b" stroke-width="1"/>
<line x1="727.952" y1="467.32" x2="733.374" y2="465.714" stroke="#465c6b" stroke-width="1"/>
<line x1="733.374" y1="465.714" x2="738.704" y2="463.827" stroke="#465c6b" stroke-width="1"/>
<line x1="738.704" y1="463.827" x2="743.928" y2="461.663" stroke="#465c6b" stroke-width="1"/>
<line x1="743.928" y1="461.663" x2="749.031" y2="459.229" stroke="#465c6b" stroke-width="1"/>
<line x1="749.031" y1="459.229" x2="754.0" y2="456.531" stroke="#465c6b" stroke-width="1"/>
<line x1="754.0" y1="456.531" x2="758.821" y2="453.576" stroke="#465c6b" stroke-width="1"/>
<line x1="758.821" y1="453.576" x2="763.481" y2="450.374" stroke="#465c6b" stroke-width="1"/>
<line x1="763.481" y1="450.374" x2="767.967" y2="446.932" stroke="#465c6b" stroke-width="1"/>
<line x1="767.967" y1="446.932" x2="772.266" y2="443.26" stroke="#465c6b" stroke-width="1"/>
<line x1="772.266" y1="443.26" x2="776.368" y2="439.368" stroke="#465c6b" stroke-width="1"/>
<line x1="776.368" y1="439.368" x2="780.26" y2="435.266" stroke="#465c6b" stroke-width="1"/>
<line x1="780.26" y1="435.266" x2="783.932" y2="430.967" stroke="#465c6b" stroke-width="1"/>
<line x1="783.932" y1="430.967" x2="787.374" y2="426.481" stroke="#465c6b" stroke-width="1"/>
<line x1="787.374" y1="426.481" x2="790.576" y2="421.821" stroke="#465c6b" stroke-width="1"/>
<line x1="790.576" y1="421.821" x2="793.531" y2="417.0" stroke="#465c6b" stroke-width="1"/>
<line x1="793.531" y1="417.0" x2="796.229" y2="412.031" stroke="#465c6b" stroke-width="1"/>
<line x1="796.229" y1="412.031" x2="798.663" y2="406.928" stroke="#465c6b" stroke-width="1"/>
<line x1="798.663" y1="406.928" x2="800.827" y2="401.704" stroke="#465c6b" stroke-width="1"/>
<line x1="800.827" y1="401.704" x2="802.714" y2="396.374" stroke="#465c6b" stroke-width="1"/>
<line x1="802.714" y1="396.374" x2="804.32" y2="390.952" stroke="#465c6b" stroke-width="1"/>
<line x1="804.32" y1="390.952" x2="805.64" y2="385.454" stroke="#465c6b" stroke-width="1"/>
<line x1="805.64" y1="385.454" x2="806.67" y2="379.895" stroke="#465c6b" stroke-width="1"/>
<line x1="806.67" y1="379.895" x2="807.408" y2="374.289" stroke="#465c6b" stroke-width="1"/>
<line x1="807.408" y1="374.289" x2="807.852" y2="368.652" stroke="#465c6b" stroke-width="1"/>
<line x1="807.852" y1="368.652" x2="808.0" y2="363.0" stroke="#465c6b" stroke-width="1"/>
<line x1="574" y1="363" x2="833" y2="363" stroke="#152b3c" stroke-width="2.5"/>
<polygon fill="#152b3c" points="833.00,363.00 824.00,367.35 824.00,358.65"/>
<line x1="700" y1="489" x2="700" y2="230" stroke="#152b3c" stroke-width="2.5"/>
<polygon fill="#152b3c" points="700.00,230.00 704.35,239.00 695.65,239.00"/>
<line x1="700" y1="363" x2="808" y2="363" stroke="#152b3c" stroke-width="2.5"/>
<polygon fill="#152b3c" points="808.00,363.00 799.00,367.35 799.00,358.65"/>
<line x1="700" y1="363" x2="807.4604498500267" y2="352.2179910021426" stroke="#152b3c" stroke-width="2.5"/>
<polygon fill="#152b3c" points="807.46,352.22 798.94,357.44 798.07,348.79"/>
<line x1="740.0" y1="363.0" x2="740.0" y2="362.9" stroke="#237c69" stroke-width="3"/>
<line x1="740.0" y1="362.9" x2="740.0" y2="362.8" stroke="#237c69" stroke-width="3"/>
<line x1="740.0" y1="362.8" x2="739.999" y2="362.7" stroke="#237c69" stroke-width="3"/>
<line x1="739.999" y1="362.7" x2="739.998" y2="362.6" stroke="#237c69" stroke-width="3"/>
<line x1="739.998" y1="362.6" x2="739.997" y2="362.5" stroke="#237c69" stroke-width="3"/>
<line x1="739.997" y1="362.5" x2="739.996" y2="362.4" stroke="#237c69" stroke-width="3"/>
<line x1="739.996" y1="362.4" x2="739.994" y2="362.3" stroke="#237c69" stroke-width="3"/>
<line x1="739.994" y1="362.3" x2="739.992" y2="362.2" stroke="#237c69" stroke-width="3"/>
<line x1="739.992" y1="362.2" x2="739.99" y2="362.1" stroke="#237c69" stroke-width="3"/>
<line x1="739.99" y1="362.1" x2="739.988" y2="362.0" stroke="#237c69" stroke-width="3"/>
<line x1="739.988" y1="362.0" x2="739.985" y2="361.9" stroke="#237c69" stroke-width="3"/>
<line x1="739.985" y1="361.9" x2="739.982" y2="361.8" stroke="#237c69" stroke-width="3"/>
<line x1="739.982" y1="361.8" x2="739.979" y2="361.7" stroke="#237c69" stroke-width="3"/>
<line x1="739.979" y1="361.7" x2="739.976" y2="361.6" stroke="#237c69" stroke-width="3"/>
<line x1="739.976" y1="361.6" x2="739.972" y2="361.5" stroke="#237c69" stroke-width="3"/>
<line x1="739.972" y1="361.5" x2="739.968" y2="361.4" stroke="#237c69" stroke-width="3"/>
<line x1="739.968" y1="361.4" x2="739.964" y2="361.301" stroke="#237c69" stroke-width="3"/>
<line x1="739.964" y1="361.301" x2="739.96" y2="361.201" stroke="#237c69" stroke-width="3"/>
<line x1="739.96" y1="361.201" x2="739.955" y2="361.101" stroke="#237c69" stroke-width="3"/>
<line x1="739.955" y1="361.101" x2="739.95" y2="361.001" stroke="#237c69" stroke-width="3"/>
<line x1="739.95" y1="361.001" x2="739.945" y2="360.901" stroke="#237c69" stroke-width="3"/>
<line x1="739.945" y1="360.901" x2="739.94" y2="360.801" stroke="#237c69" stroke-width="3"/>
<line x1="739.94" y1="360.801" x2="739.934" y2="360.701" stroke="#237c69" stroke-width="3"/>
<line x1="739.934" y1="360.701" x2="739.928" y2="360.601" stroke="#237c69" stroke-width="3"/>
<line x1="739.928" y1="360.601" x2="739.922" y2="360.502" stroke="#237c69" stroke-width="3"/>
<line x1="739.922" y1="360.502" x2="739.916" y2="360.402" stroke="#237c69" stroke-width="3"/>
<line x1="739.916" y1="360.402" x2="739.909" y2="360.302" stroke="#237c69" stroke-width="3"/>
<line x1="739.909" y1="360.302" x2="739.902" y2="360.202" stroke="#237c69" stroke-width="3"/>
<line x1="739.902" y1="360.202" x2="739.895" y2="360.103" stroke="#237c69" stroke-width="3"/>
<line x1="739.895" y1="360.103" x2="739.888" y2="360.003" stroke="#237c69" stroke-width="3"/>
<line x1="739.888" y1="360.003" x2="739.88" y2="359.903" stroke="#237c69" stroke-width="3"/>
<line x1="739.88" y1="359.903" x2="739.872" y2="359.803" stroke="#237c69" stroke-width="3"/>
<line x1="739.872" y1="359.803" x2="739.864" y2="359.704" stroke="#237c69" stroke-width="3"/>
<line x1="739.864" y1="359.704" x2="739.856" y2="359.604" stroke="#237c69" stroke-width="3"/>
<line x1="739.856" y1="359.604" x2="739.847" y2="359.504" stroke="#237c69" stroke-width="3"/>
<line x1="739.847" y1="359.504" x2="739.838" y2="359.405" stroke="#237c69" stroke-width="3"/>
<line x1="739.838" y1="359.405" x2="739.829" y2="359.305" stroke="#237c69" stroke-width="3"/>
<line x1="739.829" y1="359.305" x2="739.82" y2="359.206" stroke="#237c69" stroke-width="3"/>
<line x1="739.82" y1="359.206" x2="739.81" y2="359.106" stroke="#237c69" stroke-width="3"/>
<line x1="739.81" y1="359.106" x2="739.8" y2="359.007" stroke="#237c69" stroke-width="3"/>
<text x="592" y="521" fill="#152b3c" font-family="DejaVu Sans, sans-serif" font-size="18" text-anchor="start">Plane 1 / ω = 0.1 rad/token</text>
<text x="50" y="551" fill="#152b3c" font-family="DejaVu Sans, sans-serif" font-size="20" text-anchor="start">R = 4; base θ = 100; position p = 1. Both clocks see the same token position.</text>
<text x="50" y="583" fill="#152b3c" font-family="DejaVu Sans, sans-serif" font-size="18" text-anchor="start">Periods: 2π ≈ 6.283 tokens and 20π ≈ 62.832 tokens; circles are unit basis orbits.</text>
<line x1="40" y1="608" x2="960" y2="608" stroke="#152b3c" stroke-width="1.5"/>
<text x="40" y="638" fill="#152b3c" font-family="DejaVu Sans, sans-serif" font-size="15" text-anchor="start">R = 4 and theta = 100 produce frequencies 1 and 0.1 radians per token.</text>
<text x="40" y="659" fill="#152b3c" font-family="DejaVu Sans, sans-serif" font-size="15" text-anchor="start">Position 1 rotates each unit basis vector by its own frequency; these are not learned vectors.</text>
</svg>
